<svg width="1799" height="1060" viewBox="0 0 1799 1060" fill="none" xmlns="http://www.w3.org/2000/svg">
<g id="dashboard">
<rect id="Rectangle 45" x="174.5" y="1.5" width="1441" height="1057" rx="8.5" fill="#FF7316" fill-opacity="0.2" stroke="#2B2D42" stroke-width="3"/>
<g id="graph">
<path id="line" d="M663.144 685.159L571.079 732.705H1227.27V386.418L1082.75 552.198H1027.74L979.319 614.05H881.018L776.116 685.159H663.144Z" fill="url(#paint0_linear_460_722)"/>
<rect id="graph-bg" opacity="0.7" x="565.433" y="382.72" width="660.338" height="348.485" rx="8.5" fill="url(#paint1_linear_460_722)" fill-opacity="0.3" stroke="#2B2D42" stroke-width="3"/>
</g>
<g id="navuser">
<rect id="navuser-bg" opacity="0.7" x="208.75" y="945.355" width="284.165" height="81.4603" rx="8.5" fill="url(#paint2_linear_460_722)" stroke="#2B2D42" stroke-width="3"/>
<circle id="avatar" opacity="0.7" cx="257.277" cy="986.085" r="24.6884" fill="#2B2D42"/>
</g>
<g id="PlusCircle">
<path id="Vector" d="M1374.5 35.875C1372.81 35.875 1371.16 36.3515 1369.76 37.2443C1368.36 38.1371 1367.26 39.406 1366.62 40.8907C1365.97 42.3753 1365.8 44.009 1366.13 45.5851C1366.46 47.1612 1367.27 48.6089 1368.47 49.7452C1369.66 50.8815 1371.18 51.6554 1372.84 51.9689C1374.49 52.2824 1376.21 52.1215 1377.76 51.5065C1379.32 50.8916 1380.66 49.8502 1381.59 48.514C1382.53 47.1779 1383.03 45.607 1383.03 44C1383.03 41.8458 1382.13 39.7805 1380.53 38.2573C1378.93 36.734 1376.76 35.8773 1374.5 35.875ZM1374.5 50.875C1373.07 50.875 1371.68 50.4718 1370.49 49.7164C1369.3 48.9609 1368.38 47.8872 1367.83 46.6309C1367.28 45.3747 1367.14 43.9924 1367.42 42.6588C1367.7 41.3251 1368.39 40.1001 1369.4 39.1386C1370.41 38.1772 1371.69 37.5224 1373.09 37.2571C1374.49 36.9918 1375.94 37.128 1377.26 37.6483C1378.58 38.1687 1379.71 39.0499 1380.5 40.1805C1381.3 41.311 1381.72 42.6403 1381.72 44C1381.72 45.8227 1380.96 47.5702 1379.6 48.8591C1378.25 50.1479 1376.41 50.8729 1374.5 50.875ZM1378.44 44C1378.44 44.1658 1378.37 44.3247 1378.25 44.4419C1378.12 44.5592 1377.96 44.625 1377.78 44.625H1375.16V47.125C1375.16 47.2908 1375.09 47.4497 1374.96 47.5669C1374.84 47.6842 1374.67 47.75 1374.5 47.75C1374.33 47.75 1374.16 47.6842 1374.04 47.5669C1373.91 47.4497 1373.84 47.2908 1373.84 47.125V44.625H1371.22C1371.04 44.625 1370.88 44.5592 1370.75 44.4419C1370.63 44.3247 1370.56 44.1658 1370.56 44C1370.56 43.8342 1370.63 43.6753 1370.75 43.5581C1370.88 43.4408 1371.04 43.375 1371.22 43.375H1373.84V40.875C1373.84 40.7092 1373.91 40.5503 1374.04 40.4331C1374.16 40.3158 1374.33 40.25 1374.5 40.25C1374.67 40.25 1374.84 40.3158 1374.96 40.4331C1375.09 40.5503 1375.16 40.7092 1375.16 40.875V43.375H1377.78C1377.96 43.375 1378.12 43.4408 1378.25 43.5581C1378.37 43.6753 1378.44 43.8342 1378.44 44Z" fill="#2B2D42"/>
</g>
<g id="Gift">
<path id="Vector_2" d="M1333.72 39.625H1330.84C1330.87 39.5992 1330.91 39.5742 1330.94 39.5469C1331.19 39.3361 1331.39 39.0786 1331.53 38.7905C1331.67 38.5024 1331.74 38.19 1331.75 37.8727C1331.76 37.5255 1331.7 37.18 1331.56 36.8572C1331.43 36.5344 1331.23 36.2412 1330.97 35.9956C1330.71 35.75 1330.4 35.5572 1330.06 35.429C1329.72 35.3007 1329.36 35.2398 1329 35.25C1328.66 35.2568 1328.34 35.3291 1328.03 35.4623C1327.73 35.5956 1327.46 35.7869 1327.24 36.0242C1326.93 36.3624 1326.68 36.7441 1326.5 37.1555C1326.32 36.7441 1326.07 36.3624 1325.76 36.0242C1325.54 35.7869 1325.27 35.5956 1324.97 35.4623C1324.66 35.3291 1324.34 35.2568 1324 35.25C1323.64 35.2398 1323.28 35.3007 1322.94 35.429C1322.6 35.5572 1322.29 35.75 1322.03 35.9956C1321.77 36.2412 1321.57 36.5344 1321.44 36.8572C1321.3 37.18 1321.24 37.5255 1321.25 37.8727C1321.26 38.19 1321.33 38.5024 1321.47 38.7905C1321.61 39.0786 1321.81 39.3361 1322.06 39.5469C1322.09 39.5727 1322.13 39.5977 1322.16 39.625H1319.28C1318.93 39.625 1318.6 39.7567 1318.35 39.9911C1318.11 40.2255 1317.97 40.5435 1317.97 40.875V43.375C1317.97 43.7065 1318.11 44.0245 1318.35 44.2589C1318.6 44.4933 1318.93 44.625 1319.28 44.625V49.625C1319.28 49.9565 1319.42 50.2745 1319.67 50.5089C1319.91 50.7433 1320.25 50.875 1320.59 50.875H1332.41C1332.75 50.875 1333.09 50.7433 1333.33 50.5089C1333.58 50.2745 1333.72 49.9565 1333.72 49.625V44.625C1334.07 44.625 1334.4 44.4933 1334.65 44.2589C1334.89 44.0245 1335.03 43.7065 1335.03 43.375V40.875C1335.03 40.5435 1334.89 40.2255 1334.65 39.9911C1334.4 39.7567 1334.07 39.625 1333.72 39.625ZM1328.22 36.8523C1328.33 36.7431 1328.45 36.6554 1328.59 36.5949C1328.74 36.5344 1328.89 36.5024 1329.04 36.5008H1329.08C1329.26 36.5019 1329.44 36.5374 1329.61 36.6054C1329.78 36.6733 1329.93 36.7723 1330.05 36.8965C1330.18 37.0207 1330.28 37.1676 1330.35 37.3287C1330.41 37.4897 1330.44 37.6616 1330.44 37.8344C1330.44 37.9818 1330.4 38.1273 1330.34 38.2617C1330.28 38.3962 1330.18 38.5167 1330.07 38.6156C1329.29 39.2719 1328 39.5031 1327.2 39.5844C1327.3 38.757 1327.57 37.5547 1328.22 36.8523ZM1322.97 36.8805C1323.22 36.6384 1323.56 36.5016 1323.92 36.5H1323.96C1324.12 36.5016 1324.27 36.5336 1324.41 36.5941C1324.55 36.6546 1324.68 36.7423 1324.78 36.8516C1325.47 37.5922 1325.71 38.8203 1325.8 39.5797C1325 39.5016 1323.71 39.2672 1322.94 38.6117C1322.82 38.5128 1322.73 38.3923 1322.67 38.2578C1322.6 38.1234 1322.57 37.9779 1322.57 37.8305C1322.56 37.6549 1322.59 37.4801 1322.66 37.3168C1322.73 37.1535 1322.83 37.0051 1322.96 36.8805H1322.97ZM1319.28 40.875H1325.84V43.375H1319.28V40.875ZM1320.59 44.625H1325.84V49.625H1320.59V44.625ZM1332.41 49.625H1327.16V44.625H1332.41V49.625ZM1333.72 43.375H1327.16V40.875H1333.72V43.375Z" fill="#2B2D42"/>
</g>
<g id="BellRinging">
<path id="Vector_3" d="M1286.38 39.5547C1286.22 39.6309 1286.04 39.6455 1285.87 39.5954C1285.71 39.5453 1285.57 39.4346 1285.49 39.2875C1284.86 38.109 1283.92 37.1129 1282.75 36.4039C1282.67 36.3601 1282.61 36.303 1282.56 36.236C1282.51 36.1689 1282.47 36.0932 1282.46 36.0131C1282.44 35.933 1282.43 35.8501 1282.45 35.7692C1282.46 35.6883 1282.49 35.6109 1282.54 35.5414C1282.59 35.4719 1282.65 35.4118 1282.72 35.3644C1282.79 35.317 1282.87 35.2833 1282.95 35.2651C1283.04 35.247 1283.12 35.2448 1283.21 35.2587C1283.29 35.2726 1283.37 35.3023 1283.45 35.3461C1284.81 36.1778 1285.92 37.3395 1286.66 38.7125C1286.74 38.8596 1286.75 39.031 1286.7 39.1889C1286.65 39.3468 1286.53 39.4784 1286.38 39.5547ZM1270.93 39.625C1271.05 39.625 1271.17 39.5934 1271.27 39.5339C1271.37 39.4744 1271.46 39.3892 1271.51 39.2875C1272.14 38.109 1273.09 37.1129 1274.26 36.4039C1274.4 36.3154 1274.51 36.1749 1274.55 36.0131C1274.59 35.8514 1274.55 35.6817 1274.46 35.5414C1274.37 35.4011 1274.22 35.3017 1274.05 35.2651C1273.88 35.2285 1273.7 35.2576 1273.56 35.3461C1272.19 36.1778 1271.08 37.3395 1270.35 38.7125C1270.3 38.8077 1270.27 38.9141 1270.27 39.0213C1270.28 39.1285 1270.31 39.233 1270.37 39.3246C1270.43 39.4163 1270.51 39.4921 1270.61 39.5447C1270.71 39.5973 1270.82 39.625 1270.93 39.625ZM1286.2 47.7453C1286.31 47.9352 1286.37 48.1509 1286.37 48.3707C1286.37 48.5905 1286.31 48.8066 1286.2 48.9973C1286.09 49.1879 1285.92 49.3463 1285.72 49.4565C1285.52 49.5667 1285.29 49.6248 1285.06 49.625H1281.72C1281.57 50.3314 1281.16 50.9665 1280.58 51.4227C1279.99 51.8789 1279.26 52.1281 1278.5 52.1281C1277.74 52.1281 1277.01 51.8789 1276.42 51.4227C1275.84 50.9665 1275.44 50.3314 1275.28 49.625H1271.94C1271.71 49.6246 1271.48 49.5662 1271.28 49.4559C1271.08 49.3456 1270.92 49.1872 1270.8 48.9966C1270.69 48.806 1270.63 48.59 1270.63 48.3703C1270.63 48.1506 1270.69 47.9351 1270.81 47.7453C1271.55 46.5305 1271.94 44.8031 1271.94 42.75C1271.94 41.0924 1272.63 39.5027 1273.86 38.3306C1275.09 37.1585 1276.76 36.5 1278.5 36.5C1280.24 36.5 1281.91 37.1585 1283.14 38.3306C1284.37 39.5027 1285.06 41.0924 1285.06 42.75C1285.06 44.8023 1285.45 46.5297 1286.2 47.7453ZM1280.36 49.625H1276.64C1276.78 49.9902 1277.03 50.3063 1277.36 50.5298C1277.7 50.7533 1278.09 50.8734 1278.5 50.8734C1278.91 50.8734 1279.3 50.7533 1279.64 50.5298C1279.97 50.3063 1280.22 49.9902 1280.36 49.625ZM1285.06 48.375C1284.19 46.9477 1283.75 45.0555 1283.75 42.75C1283.75 41.4239 1283.2 40.1521 1282.21 39.2145C1281.23 38.2768 1279.89 37.75 1278.5 37.75C1277.11 37.75 1275.77 38.2768 1274.79 39.2145C1273.8 40.1521 1273.25 41.4239 1273.25 42.75C1273.25 45.0562 1272.81 46.9484 1271.94 48.375H1285.06Z" fill="#2B2D42"/>
</g>
<rect id="logo" opacity="0.7" x="207" y="23" width="287" height="42" fill="#2B2D42"/>
<g id="navlinks">
<g id="links">
<rect id="link1" opacity="0.7" x="208.75" y="146.231" width="284.165" height="39.8798" fill="url(#paint3_linear_460_722)" stroke="#2B2D42" stroke-width="3"/>
<rect id="link2" opacity="0.7" x="208.75" y="204.704" width="284.165" height="39.8798" fill="url(#paint4_linear_460_722)" stroke="#2B2D42" stroke-width="3"/>
<rect id="link3" opacity="0.7" x="208.75" y="263.176" width="284.165" height="39.8798" fill="url(#paint5_linear_460_722)" stroke="#2B2D42" stroke-width="3"/>
</g>
<rect id="title" opacity="0.7" x="207.25" y="111.597" width="126.041" height="12.3442" fill="#2B2D42"/>
</g>
<g id="navlinks_2">
<g id="links_2">
<rect id="link2_2" opacity="0.7" x="208.75" y="456.785" width="284.165" height="39.8798" fill="url(#paint6_linear_460_722)" stroke="#2B2D42" stroke-width="3"/>
<rect id="link1_2" opacity="0.7" x="208.75" y="398.313" width="284.165" height="39.8798" fill="url(#paint7_linear_460_722)" stroke="#2B2D42" stroke-width="3"/>
</g>
<rect id="title_2" opacity="0.7" x="207.25" y="363.678" width="126.041" height="12.3442" fill="#2B2D42"/>
</g>
<rect id="title1" opacity="0.7" x="587" y="112" width="203" height="24" fill="#2B2D42"/>
<rect id="title2" opacity="0.7" x="587" y="336" width="203" height="24" fill="#2B2D42"/>
<g id="stats">
<g id="stat1">
<rect id="Rectangle 53" opacity="0.7" x="564.783" y="158.575" width="320.981" height="124.99" rx="8.5" fill="url(#paint8_linear_460_722)" stroke="#2B2D42" stroke-width="3"/>
<g id="stat-1" opacity="0.7">
<rect id="Rectangle 57" x="586.672" y="177.216" width="160.474" height="13.6436" fill="#2B2D42"/>
<rect id="Rectangle 58" x="586.672" y="201.904" width="242.986" height="32.4847" fill="#2B2D42"/>
</g>
</g>
<g id="stat2">
<rect id="Rectangle 54" opacity="0.7" x="904.573" y="158.575" width="320.981" height="124.99" rx="8.5" fill="url(#paint9_linear_460_722)" stroke="#2B2D42" stroke-width="3"/>
<g id="Group 43" opacity="0.7">
<rect id="Rectangle 59" x="928.411" y="177.216" width="160.474" height="13.6436" fill="#2B2D42"/>
<rect id="Rectangle 60" x="928.411" y="201.904" width="242.986" height="32.4847" fill="#2B2D42"/>
</g>
</g>
<g id="stat3">
<rect id="Rectangle 55" opacity="0.7" x="1244.36" y="158.575" width="320.981" height="124.99" rx="8.5" fill="url(#paint10_linear_460_722)" stroke="#2B2D42" stroke-width="3"/>
<g id="Group 45" opacity="0.7">
<rect id="Rectangle 61" x="1270.15" y="177.216" width="160.474" height="13.6436" fill="#2B2D42"/>
<rect id="Rectangle 62" x="1270.15" y="201.904" width="242.986" height="32.4847" fill="#2B2D42"/>
</g>
</g>
</g>
<line id="header-b" opacity="0.7" x1="173" y1="82.5" x2="1617" y2="82.5" stroke="#2B2D42" stroke-width="3"/>
<g id="search">
<rect id="input" opacity="0.7" x="564.783" y="24.0888" width="378.371" height="39.8798" fill="url(#paint11_linear_460_722)" stroke="#2B2D42" stroke-width="3"/>
<g id="MagnifyingGlass">
<path id="Vector_4" d="M594.927 51.3654L590.861 47.2999C592.039 45.8849 592.627 44.0701 592.502 42.2329C592.376 40.3957 591.547 38.6775 590.187 37.4359C588.827 36.1943 587.041 35.5247 585.2 35.5666C583.359 35.6084 581.605 36.3584 580.303 37.6605C579.001 38.9627 578.251 40.7167 578.209 42.5577C578.167 44.3987 578.837 46.185 580.078 47.5449C581.32 48.9049 583.038 49.7338 584.875 49.8592C586.712 49.9847 588.527 49.397 589.942 48.2184L594.008 52.2847C594.068 52.345 594.14 52.3929 594.219 52.4256C594.297 52.4583 594.382 52.4751 594.467 52.4751C594.553 52.4751 594.637 52.4583 594.716 52.4256C594.795 52.3929 594.867 52.345 594.927 52.2847C594.987 52.2243 595.035 52.1526 595.068 52.0738C595.101 51.9949 595.117 51.9104 595.117 51.825C595.117 51.7396 595.101 51.6551 595.068 51.5762C595.035 51.4974 594.987 51.4257 594.927 51.3654ZM579.524 42.7293C579.524 41.5728 579.867 40.4423 580.51 39.4807C581.152 38.5192 582.066 37.7697 583.134 37.3271C584.202 36.8846 585.378 36.7688 586.512 36.9944C587.647 37.22 588.688 37.7769 589.506 38.5947C590.324 39.4124 590.881 40.4543 591.107 41.5886C591.332 42.7228 591.216 43.8985 590.774 44.9669C590.331 46.0354 589.582 46.9486 588.62 47.5911C587.659 48.2336 586.528 48.5765 585.372 48.5765C583.821 48.5748 582.335 47.9582 581.239 46.862C580.143 45.7658 579.526 44.2796 579.524 42.7293Z" fill="#2B2D42"/>
</g>
</g>
<line id="header-br" x1="1415.5" y1="26" x2="1415.5" y2="62" stroke="#2B2D42" stroke-width="3"/>
<g id="user">
<circle id="avatar_2" cx="1467.66" cy="44.0287" r="18.1914" fill="url(#paint12_linear_460_722)"/>
<rect id="username" x="1501.44" y="36.2324" width="65.6191" height="16.2424" fill="url(#paint13_linear_460_722)"/>
</g>
<line id="nav-br" opacity="0.7" x1="523.5" y1="6.55671e-08" x2="523.5" y2="1060" stroke="#2B2D42" stroke-width="3"/>
<g id="pie-chart">
<rect id="pie-bg" opacity="0.7" x="565.433" y="758.893" width="362.778" height="267.923" rx="8.5" fill="url(#paint14_linear_460_722)" stroke="#2B2D42" stroke-width="3"/>
<g id="pie">
<path id="arc3" d="M755.132 996.119C736.262 997.702 717.32 994.068 700.376 985.613C683.431 977.158 669.137 964.209 659.055 948.18C648.972 932.151 643.49 913.659 643.207 894.724C642.924 875.79 647.85 857.142 657.449 840.818L687.191 858.307C680.799 869.179 677.518 881.598 677.706 894.208C677.895 906.818 681.546 919.134 688.261 929.809C694.976 940.485 704.496 949.109 715.78 954.739C727.065 960.37 739.681 962.791 752.248 961.736L755.132 996.119Z" fill="url(#paint15_linear_460_722)"/>
<path id="arc2" d="M848.261 875.424C844.971 856.571 836.51 839.003 823.82 824.679C811.13 810.354 794.71 799.836 776.392 794.298C758.074 788.76 738.577 788.419 720.076 793.313C701.576 798.208 684.798 808.145 671.615 822.018L696.626 845.786C705.406 836.547 716.58 829.929 728.901 826.669C741.222 823.41 754.207 823.637 766.407 827.325C778.607 831.013 789.542 838.018 797.993 847.558C806.445 857.098 812.08 868.799 814.271 881.354L848.261 875.424Z" fill="url(#paint16_linear_460_722)"/>
<path id="arc1" d="M849.557 886.127C851.24 910.726 844.07 935.115 829.341 954.889C814.612 974.662 793.296 988.515 769.245 993.945L761.647 960.288C777.665 956.672 791.861 947.446 801.67 934.277C811.479 921.108 816.255 904.865 815.134 888.483L849.557 886.127Z" fill="url(#paint17_linear_460_722)"/>
</g>
</g>
<g id="stack">
<rect id="stack-bg" opacity="0.7" x="1244.36" y="382.72" width="321.197" height="348.485" rx="8.5" fill="url(#paint18_linear_460_722)" stroke="#2B2D42" stroke-width="3"/>
<g id="noti-4">
<rect id="Rectangle 67" x="1335.77" y="422.151" width="86.4093" height="9.74541" fill="#2B2D42"/>
<rect id="Rectangle 68" x="1335.77" y="437.094" width="120.193" height="16.2424" fill="#2B2D42"/>
<circle id="Ellipse 37" cx="1301.01" cy="438.068" r="22.4145" fill="#2B2D42"/>
<rect id="Rectangle 66" x="1263.5" y="406.408" width="282.916" height="62.67" rx="9.5" fill="url(#paint19_linear_460_722)" stroke="black"/>
</g>
<g id="noti-2">
<rect id="Rectangle 67_2" x="1335.77" y="501.413" width="86.4093" height="9.74541" fill="#2B2D42"/>
<rect id="Rectangle 68_2" x="1335.77" y="516.356" width="120.193" height="16.2424" fill="#2B2D42"/>
<circle id="Ellipse 37_2" cx="1301.01" cy="517.331" r="22.4145" fill="#2B2D42"/>
<rect id="Rectangle 66_2" x="1263.5" y="485.671" width="282.916" height="62.67" rx="9.5" fill="url(#paint20_linear_460_722)" stroke="black"/>
</g>
<g id="noti-3">
<rect id="Rectangle 67_3" x="1335.77" y="580.676" width="86.4093" height="9.74541" fill="#2B2D42"/>
<rect id="Rectangle 68_3" x="1335.77" y="595.619" width="120.193" height="16.2424" fill="#2B2D42"/>
<circle id="Ellipse 37_3" cx="1301.01" cy="596.594" r="22.4145" fill="#2B2D42"/>
<rect id="Rectangle 66_3" x="1263.5" y="564.934" width="282.916" height="62.67" rx="9.5" fill="url(#paint21_linear_460_722)" stroke="black"/>
</g>
<g id="noti-4_2">
<rect id="Rectangle 67_4" x="1335.77" y="659.939" width="86.4093" height="9.74541" fill="#2B2D42"/>
<rect id="Rectangle 68_4" x="1335.77" y="674.882" width="120.193" height="16.2424" fill="#2B2D42"/>
<circle id="Ellipse 37_4" cx="1301.01" cy="675.856" r="22.4145" fill="#2B2D42"/>
<rect id="Rectangle 66_4" x="1263.5" y="644.196" width="282.916" height="62.67" rx="9.5" fill="url(#paint22_linear_460_722)" stroke="black"/>
</g>
</g>
<line id="stats-bb" opacity="0.7" x1="522" y1="314.5" x2="1617" y2="314.5" stroke="black" stroke-width="3"/>
<g id="table">
<rect id="table-bg" opacity="0.7" x="958.498" y="758.893" width="609.662" height="267.923" rx="8.5" fill="url(#paint23_linear_460_722)" stroke="#2B2D42" stroke-width="3"/>
<g id="table-header" opacity="0.7">
<rect id="Rectangle 70" x="990.132" y="784.03" width="70.8167" height="11.6945" fill="#2B2D42"/>
<rect id="Rectangle 71" x="1088.24" y="784.03" width="72.1161" height="11.6945" fill="#2B2D42"/>
<rect id="Rectangle 72" x="1206.48" y="784.03" width="72.1161" height="11.6945" fill="#2B2D42"/>
<rect id="Rectangle 73" x="1311.73" y="784.03" width="72.1161" height="11.6945" fill="#2B2D42"/>
<rect id="Rectangle 74" x="1426.73" y="784.03" width="72.1161" height="11.6945" fill="#2B2D42"/>
</g>
<g id="table-data">
<g id="data-1">
<g id="Group 31">
<circle id="Ellipse 38" cx="1008.97" cy="843.802" r="18.8411" fill="#2B2D42"/>
<rect id="Rectangle 70_2" x="1088.24" y="837.955" width="85.7596" height="11.6945" fill="#2B2D42"/>
<rect id="Rectangle 71_2" x="1225.32" y="837.955" width="41.5804" height="11.6945" fill="#2B2D42"/>
<rect id="Rectangle 72_2" x="1311.73" y="837.955" width="92.2566" height="11.6945" fill="#2B2D42"/>
<rect id="Rectangle 73_2" x="1426.73" y="837.955" width="92.2566" height="11.6945" fill="#2B2D42"/>
</g>
<rect id="Rectangle 69" x="978.938" y="817.015" width="568.782" height="52.9246" rx="9.5" fill="url(#paint24_linear_460_722)" stroke="black"/>
</g>
<g id="data-2">
<g id="Group 31_2">
<circle id="Ellipse 38_2" cx="1008.97" cy="913.32" r="18.8411" fill="#2B2D42"/>
<rect id="Rectangle 70_3" x="1088.24" y="907.472" width="85.7596" height="11.6945" fill="#2B2D42"/>
<rect id="Rectangle 71_3" x="1225.32" y="907.472" width="41.5804" height="11.6945" fill="#2B2D42"/>
<rect id="Rectangle 72_3" x="1311.73" y="907.472" width="92.2566" height="11.6945" fill="#2B2D42"/>
<rect id="Rectangle 73_3" x="1426.73" y="907.472" width="92.2566" height="11.6945" fill="#2B2D42"/>
</g>
<rect id="Rectangle 69_2" x="978.938" y="886.532" width="568.782" height="52.9246" rx="9.5" fill="url(#paint25_linear_460_722)" stroke="black"/>
</g>
<g id="data-3">
<g id="Group 31_3">
<circle id="Ellipse 38_3" cx="1008.97" cy="982.837" r="18.8411" fill="#2B2D42"/>
<rect id="Rectangle 70_4" x="1088.24" y="976.99" width="85.7596" height="11.6945" fill="#2B2D42"/>
<rect id="Rectangle 71_4" x="1225.32" y="976.99" width="41.5804" height="11.6945" fill="#2B2D42"/>
<rect id="Rectangle 72_4" x="1311.73" y="976.99" width="92.2566" height="11.6945" fill="#2B2D42"/>
<rect id="Rectangle 73_4" x="1426.73" y="976.99" width="92.2566" height="11.6945" fill="#2B2D42"/>
</g>
<rect id="Rectangle 69_3" x="978.938" y="956.05" width="568.782" height="52.9246" rx="9.5" fill="url(#paint26_linear_460_722)" stroke="black"/>
</g>
</g>
</g>
<path id="mouse-rb" d="M1705.56 700.708C1703.15 697.005 1706.38 692.223 1710.72 693.072L1744.06 699.605C1749 700.573 1749.57 707.414 1744.86 709.19L1736.32 712.41C1734.33 713.159 1733.03 715.082 1733.08 717.206L1733.29 726.332C1733.41 731.367 1726.85 733.397 1724.11 729.178L1705.56 700.708Z" fill="#2B2D42"/>
<path id="mouse-rt" d="M1743.25 341.427C1740.84 337.724 1744.06 332.942 1748.4 333.791L1781.74 340.324C1786.68 341.292 1787.25 348.133 1782.54 349.909L1774 353.129C1772.01 353.879 1770.72 355.801 1770.76 357.925L1770.98 367.052C1771.09 372.086 1764.54 374.117 1761.79 369.897L1743.25 341.427Z" fill="#2B2D42"/>
<path id="mouse-lb" d="M55.7509 223.832C58.1627 220.129 54.9366 215.347 50.5998 216.197L17.2579 222.729C12.3163 223.698 11.7437 230.539 16.4557 232.315L24.9984 235.535C26.9857 236.284 28.283 238.207 28.2334 240.33L28.0205 249.457C27.9031 254.491 34.4608 256.522 37.2089 252.302L55.7509 223.832Z" fill="#2B2D42"/>
<path id="mouse-lt" d="M111.625 755.282C114.037 751.579 110.811 746.797 106.474 747.647L73.1319 754.179C68.1903 755.147 67.6177 761.988 72.3297 763.765L80.8724 766.985C82.8598 767.734 84.157 769.657 84.1075 771.78L83.8945 780.907C83.7771 785.941 90.3348 787.972 93.0829 783.752L111.625 755.282Z" fill="#2B2D42"/>
</g>
<defs>
<linearGradient id="paint0_linear_460_722" x1="993.972" y1="559.881" x2="1078" y2="632.397" gradientUnits="userSpaceOnUse">
<stop stop-color="#FF7316"/>
<stop offset="1" stop-color="#FF7316" stop-opacity="0.5"/>
</linearGradient>
<linearGradient id="paint1_linear_460_722" x1="1221.73" y1="515.926" x2="563.93" y2="514.438" gradientUnits="userSpaceOnUse">
<stop stop-color="#FF7316"/>
<stop offset="1" stop-color="#FF7316" stop-opacity="0.5"/>
</linearGradient>
<linearGradient id="paint2_linear_460_722" x1="499.612" y1="1014.35" x2="185.485" y2="961.397" gradientUnits="userSpaceOnUse">
<stop stop-color="#FF7316"/>
<stop offset="1" stop-color="#FF7316" stop-opacity="0.56"/>
</linearGradient>
<linearGradient id="paint3_linear_460_722" x1="207.25" y1="166.171" x2="494.415" y2="166.171" gradientUnits="userSpaceOnUse">
<stop stop-color="#FF7316"/>
<stop offset="1" stop-color="#FF7316" stop-opacity="0.64"/>
</linearGradient>
<linearGradient id="paint4_linear_460_722" x1="207.25" y1="224.644" x2="494.415" y2="224.644" gradientUnits="userSpaceOnUse">
<stop stop-color="#FF7316"/>
<stop offset="1" stop-color="#FF7316" stop-opacity="0.64"/>
</linearGradient>
<linearGradient id="paint5_linear_460_722" x1="207.25" y1="283.116" x2="494.415" y2="283.116" gradientUnits="userSpaceOnUse">
<stop stop-color="#FF7316"/>
<stop offset="1" stop-color="#FF7316" stop-opacity="0.64"/>
</linearGradient>
<linearGradient id="paint6_linear_460_722" x1="207.25" y1="476.725" x2="494.415" y2="476.725" gradientUnits="userSpaceOnUse">
<stop stop-color="#FF7316"/>
<stop offset="1" stop-color="#FF7316" stop-opacity="0.64"/>
</linearGradient>
<linearGradient id="paint7_linear_460_722" x1="207.25" y1="418.253" x2="494.415" y2="418.253" gradientUnits="userSpaceOnUse">
<stop stop-color="#FF7316"/>
<stop offset="1" stop-color="#FF7316" stop-opacity="0.64"/>
</linearGradient>
<linearGradient id="paint8_linear_460_722" x1="884.557" y1="206.127" x2="563.283" y2="205.153" gradientUnits="userSpaceOnUse">
<stop stop-color="#FF7316"/>
<stop offset="1" stop-color="#FF7316" stop-opacity="0.5"/>
</linearGradient>
<linearGradient id="paint9_linear_460_722" x1="1224.35" y1="206.127" x2="903.073" y2="205.153" gradientUnits="userSpaceOnUse">
<stop stop-color="#FF7316"/>
<stop offset="1" stop-color="#FF7316" stop-opacity="0.5"/>
</linearGradient>
<linearGradient id="paint10_linear_460_722" x1="1564.14" y1="206.127" x2="1242.86" y2="205.153" gradientUnits="userSpaceOnUse">
<stop stop-color="#FF7316"/>
<stop offset="1" stop-color="#FF7316" stop-opacity="0.5"/>
</linearGradient>
<linearGradient id="paint11_linear_460_722" x1="563.283" y1="44.0287" x2="944.654" y2="44.0287" gradientUnits="userSpaceOnUse">
<stop stop-color="#FF7316"/>
<stop offset="1" stop-color="#FF7316" stop-opacity="0.64"/>
</linearGradient>
<linearGradient id="paint12_linear_460_722" x1="1485.54" y1="39.7809" x2="1449.47" y2="39.7377" gradientUnits="userSpaceOnUse">
<stop stop-color="#FF7316"/>
<stop offset="1" stop-color="#FF7316" stop-opacity="0.5"/>
</linearGradient>
<linearGradient id="paint13_linear_460_722" x1="1566.51" y1="42.4572" x2="1501.44" y2="42.1422" gradientUnits="userSpaceOnUse">
<stop stop-color="#FF7316"/>
<stop offset="1" stop-color="#FF7316" stop-opacity="0.5"/>
</linearGradient>
<linearGradient id="paint14_linear_460_722" x1="926.654" y1="861.224" x2="563.93" y2="860.637" gradientUnits="userSpaceOnUse">
<stop stop-color="#FF7316"/>
<stop offset="1" stop-color="#FF7316" stop-opacity="0.5"/>
</linearGradient>
<linearGradient id="paint15_linear_460_722" x1="848.072" y1="869.058" x2="643.194" y2="868.812" gradientUnits="userSpaceOnUse">
<stop stop-color="#202020"/>
<stop offset="1" stop-color="#FF7316"/>
</linearGradient>
<linearGradient id="paint16_linear_460_722" x1="848.072" y1="869.058" x2="643.194" y2="868.812" gradientUnits="userSpaceOnUse">
<stop stop-color="#202020"/>
<stop offset="1" stop-color="#FF7316"/>
</linearGradient>
<linearGradient id="paint17_linear_460_722" x1="848.072" y1="869.058" x2="643.194" y2="868.812" gradientUnits="userSpaceOnUse">
<stop stop-color="#202020"/>
<stop offset="1" stop-color="#FF7316"/>
</linearGradient>
<linearGradient id="paint18_linear_460_722" x1="1564.35" y1="515.926" x2="1242.86" y2="515.571" gradientUnits="userSpaceOnUse">
<stop stop-color="#FF7316"/>
<stop offset="1" stop-color="#FF7316" stop-opacity="0.5"/>
</linearGradient>
<linearGradient id="paint19_linear_460_722" x1="1544.55" y1="430.31" x2="1263.01" y2="428.805" gradientUnits="userSpaceOnUse">
<stop stop-color="#FF7316"/>
<stop offset="1" stop-color="#FF7316" stop-opacity="0.5"/>
</linearGradient>
<linearGradient id="paint20_linear_460_722" x1="1544.55" y1="509.573" x2="1263.01" y2="508.068" gradientUnits="userSpaceOnUse">
<stop stop-color="#FF7316"/>
<stop offset="1" stop-color="#FF7316" stop-opacity="0.5"/>
</linearGradient>
<linearGradient id="paint21_linear_460_722" x1="1544.55" y1="588.835" x2="1263.01" y2="587.331" gradientUnits="userSpaceOnUse">
<stop stop-color="#FF7316"/>
<stop offset="1" stop-color="#FF7316" stop-opacity="0.5"/>
</linearGradient>
<linearGradient id="paint22_linear_460_722" x1="1544.55" y1="668.098" x2="1263.01" y2="666.593" gradientUnits="userSpaceOnUse">
<stop stop-color="#FF7316"/>
<stop offset="1" stop-color="#FF7316" stop-opacity="0.5"/>
</linearGradient>
<linearGradient id="paint23_linear_460_722" x1="1564.54" y1="861.224" x2="956.997" y2="859.577" gradientUnits="userSpaceOnUse">
<stop stop-color="#FF7316"/>
<stop offset="1" stop-color="#FF7316" stop-opacity="0.5"/>
</linearGradient>
<linearGradient id="paint24_linear_460_722" x1="1543.46" y1="837.182" x2="978.523" y2="830.029" gradientUnits="userSpaceOnUse">
<stop stop-color="#FF7316"/>
<stop offset="1" stop-color="#FF7316" stop-opacity="0.5"/>
</linearGradient>
<linearGradient id="paint25_linear_460_722" x1="1543.46" y1="906.699" x2="978.523" y2="899.546" gradientUnits="userSpaceOnUse">
<stop stop-color="#FF7316"/>
<stop offset="1" stop-color="#FF7316" stop-opacity="0.5"/>
</linearGradient>
<linearGradient id="paint26_linear_460_722" x1="1543.46" y1="976.216" x2="978.523" y2="969.063" gradientUnits="userSpaceOnUse">
<stop stop-color="#FF7316"/>
<stop offset="1" stop-color="#FF7316" stop-opacity="0.5"/>
</linearGradient>
</defs>
</svg>
