<svg width="410" height="439" viewBox="0 0 410 439" fill="none" xmlns="http://www.w3.org/2000/svg">
<rect x="199.715" y="38.4314" width="208.916" height="207.771" fill="url(#paint0_linear_373_587)"/>
<path d="M304.322 271.271C333.246 271.271 359.416 274.317 378.338 279.234C387.803 281.694 395.427 284.614 400.672 287.837C405.946 291.077 408.674 294.53 408.674 298.016C408.674 301.501 405.946 304.955 400.672 308.195C395.427 311.418 387.803 314.338 378.338 316.797C359.416 321.714 333.246 324.761 304.322 324.761C275.397 324.761 249.228 321.714 230.305 316.797C220.84 314.338 213.216 311.418 207.97 308.195C202.696 304.955 199.968 301.501 199.968 298.016C199.968 294.53 202.696 291.077 207.97 287.837C213.216 284.614 220.84 281.694 230.305 279.234C249.228 274.318 275.397 271.271 304.322 271.271Z" fill="url(#paint1_linear_373_587)" stroke="#202020"/>
<path d="M304.322 13.2046C333.246 13.2047 359.416 16.2516 378.338 21.1685C387.803 23.6279 395.427 26.5485 400.672 29.771C405.946 33.011 408.674 36.4645 408.674 39.9498C408.674 43.4351 405.946 46.8894 400.672 50.1294C395.427 53.3519 387.803 56.2717 378.338 58.731C359.416 63.648 333.246 66.6948 304.322 66.6949C275.397 66.6949 249.228 63.6479 230.305 58.731C220.84 56.2716 213.216 53.352 207.97 50.1294C202.696 46.8894 199.968 43.4351 199.968 39.9498C199.968 36.4645 202.696 33.011 207.97 29.771C213.216 26.5484 220.84 23.6279 230.305 21.1685C249.228 16.2516 275.397 13.2046 304.322 13.2046Z" fill="#F2CCB2" stroke="#202020"/>
<path d="M304.322 245.987C333.246 245.987 359.416 249.034 378.338 253.951C387.803 256.41 395.427 259.331 400.672 262.554C405.946 265.793 408.674 269.247 408.674 272.732C408.674 276.218 405.946 279.672 400.672 282.912C395.427 286.134 387.803 289.054 378.338 291.513C359.416 296.43 333.246 299.477 304.322 299.477C275.397 299.477 249.228 296.43 230.305 291.513C220.84 289.054 213.216 286.134 207.97 282.912C202.696 279.672 199.968 276.218 199.968 272.732C199.968 269.247 202.696 265.793 207.97 262.554C213.216 259.331 220.84 256.41 230.305 253.951C249.228 249.034 275.397 245.987 304.322 245.987Z" fill="url(#paint2_linear_373_587)" stroke="#202020"/>
<path d="M304.322 0.837334C333.246 0.837364 359.416 3.88425 378.338 8.8012C387.803 11.2606 395.427 14.1812 400.672 17.4037C405.946 20.6437 408.674 24.0972 408.674 27.5825C408.674 31.0678 405.946 34.5221 400.672 37.7621C395.427 40.9846 387.803 43.9044 378.338 46.3637C359.416 51.2807 333.246 54.3275 304.322 54.3276C275.397 54.3276 249.228 51.2806 230.305 46.3637C220.84 43.9043 213.216 40.9847 207.97 37.7621C202.696 34.5221 199.968 31.0678 199.968 27.5825C199.968 24.0972 202.696 20.6437 207.97 17.4037C213.216 14.1811 220.84 11.2606 230.305 8.8012C249.228 3.88428 275.397 0.837334 304.322 0.837334Z" stroke="#202020"/>
<line x1="409.131" y1="27.5827" x2="409.131" y2="298.016" stroke="#292929"/>
<path d="M304.322 219.458C333.246 219.458 359.416 222.504 378.338 227.421C387.803 229.881 395.427 232.801 400.672 236.024C405.946 239.264 408.674 242.717 408.674 246.203C408.674 249.688 405.946 253.142 400.672 256.382C395.427 259.605 387.803 262.525 378.338 264.984C359.416 269.901 333.246 272.948 304.322 272.948C275.397 272.948 249.228 269.901 230.305 264.984C220.84 262.525 213.216 259.605 207.97 256.382C202.696 253.142 199.968 249.688 199.968 246.203C199.968 242.717 202.696 239.264 207.97 236.024C213.216 232.801 220.84 229.881 230.305 227.421C249.228 222.505 275.397 219.458 304.322 219.458Z" fill="url(#paint3_linear_373_587)" stroke="#202020"/>
<path d="M159.782 338.009C188.706 338.009 214.876 341.056 233.798 345.973C243.263 348.433 250.887 351.353 256.132 354.576C261.406 357.816 264.134 361.269 264.134 364.755C264.134 368.24 261.406 371.694 256.132 374.934C250.887 378.157 243.263 381.076 233.798 383.536C214.876 388.453 188.706 391.5 159.782 391.5C130.857 391.5 104.688 388.453 85.7651 383.536C76.3002 381.076 68.6759 378.157 63.4302 374.934C58.1562 371.694 55.4282 368.24 55.4282 364.755C55.4283 361.269 58.1563 357.816 63.4302 354.576C68.6759 351.353 76.3 348.433 85.7651 345.973C104.688 341.056 130.857 338.009 159.782 338.009Z" fill="url(#paint4_linear_373_587)" stroke="#202020"/>
<path d="M159.782 312.726C188.706 312.726 214.876 315.773 233.798 320.69C243.263 323.149 250.887 326.07 256.132 329.292C261.406 332.532 264.134 335.986 264.134 339.471C264.134 342.956 261.406 346.411 256.132 349.651C250.887 352.873 243.263 355.793 233.798 358.252C214.876 363.169 188.706 366.216 159.782 366.216C130.857 366.216 104.688 363.169 85.7651 358.252C76.3002 355.793 68.6759 352.873 63.4302 349.651C58.1562 346.411 55.4282 342.956 55.4282 339.471C55.4283 335.986 58.1563 332.532 63.4302 329.292C68.6759 326.07 76.3 323.149 85.7651 320.69C104.688 315.773 130.857 312.726 159.782 312.726Z" fill="url(#paint5_linear_373_587)" stroke="#202020"/>
<path d="M159.782 286.196C188.706 286.196 214.876 289.243 233.798 294.16C243.263 296.62 250.887 299.54 256.132 302.763C261.406 306.003 264.134 309.456 264.134 312.942C264.134 316.427 261.406 319.881 256.132 323.121C250.887 326.344 243.263 329.263 233.798 331.723C214.876 336.64 188.706 339.687 159.782 339.687C130.857 339.687 104.688 336.64 85.7651 331.723C76.3002 329.263 68.6759 326.344 63.4302 323.121C58.1562 319.881 55.4282 316.427 55.4282 312.942C55.4283 309.456 58.1563 306.003 63.4302 302.763C68.6759 299.54 76.3 296.62 85.7651 294.16C104.688 289.243 130.857 286.196 159.782 286.196Z" fill="url(#paint6_linear_373_587)" stroke="#202020"/>
<path d="M159.782 79.9435C188.706 79.9435 214.876 82.9904 233.798 87.9074C243.263 90.3668 250.887 93.2874 256.132 96.5099C261.406 99.7499 264.134 103.203 264.134 106.689C264.134 110.174 261.406 113.628 256.132 116.868C250.887 120.091 243.263 123.011 233.798 125.47C214.876 130.387 188.706 133.434 159.782 133.434C130.857 133.434 104.688 130.387 85.7651 125.47C76.3002 123.01 68.6759 120.091 63.4302 116.868C58.1562 113.628 55.4282 110.174 55.4282 106.689C55.4283 103.203 58.1563 99.7499 63.4302 96.5099C68.6759 93.2873 76.3 90.3668 85.7651 87.9074C104.688 82.9905 130.857 79.9435 159.782 79.9435Z" stroke="#202020"/>
<path d="M159.782 67.5762C188.706 67.5762 214.876 70.6231 233.798 75.5401C243.263 77.9995 250.887 80.9201 256.132 84.1426C261.406 87.3826 264.134 90.8361 264.134 94.3213C264.134 97.8066 261.406 101.261 256.132 104.501C250.887 107.723 243.263 110.643 233.798 113.103C214.876 118.02 188.706 121.066 159.782 121.066C130.857 121.066 104.688 118.02 85.7651 113.103C76.3002 110.643 68.6759 107.724 63.4302 104.501C58.1562 101.261 55.4282 97.8066 55.4282 94.3213C55.4283 90.8361 58.1563 87.3826 63.4302 84.1426C68.6759 80.92 76.3 77.9995 85.7651 75.5401C104.688 70.6231 130.857 67.5762 159.782 67.5762Z" stroke="#202020"/>
<line x1="55.4282" y1="94.3216" x2="55.4282" y2="296.452" stroke="#202020"/>
<line x1="199.968" y1="27.5827" x2="199.968" y2="229.713" stroke="#202020"/>
<line x1="264.591" y1="94.3216" x2="264.591" y2="364.755" stroke="#292929"/>
<path d="M91.7131 181.449V203.865H82.4545L94.1497 255.032L86.3528 258.443L125.337 262.341V278.91L144.829 255.032L154.088 258.443L138.981 224.332L150.677 229.205L121.926 196.068L133.134 181.449L98.0481 203.865L91.7131 181.449Z" stroke="#676767"/>
<path d="M84.8353 203.677L97.3479 255.866L94.4803 257.251L127.109 260.321V276.292" stroke="#676767"/>
<path d="M91.7417 204.071L93.7196 202.366V188.406" stroke="#676767"/>
<path d="M45.3375 396.832L69.2587 390.414L77.4269 403.834L45.3375 396.832Z" fill="url(#paint7_linear_373_587)"/>
<path d="M105.432 396.832H86.762L122.461 406.215L115.429 401.589L126.902 402.514L102.846 392.522L105.432 396.832Z" fill="url(#paint8_linear_373_587)"/>
<path d="M90.633 417.133L96.9245 411.952L95.8142 415.838L90.633 417.133Z" fill="url(#paint9_linear_373_587)"/>
<path d="M126.902 414.014L107.612 411.952L112.356 419.055L126.902 414.014Z" fill="url(#paint10_linear_373_587)"/>
<path d="M0.21106 417.133L50.0871 411.952L51.0614 414.765L64.3375 419.055L77.4269 423.185L39.1619 428.885L42.5417 437.875L27.2867 426.51L15.9091 430.84L22.5365 419.055L0.21106 417.133Z" fill="url(#paint11_linear_373_587)"/>
<path d="M45.3375 396.832L69.2587 390.414L77.4269 403.834L45.3375 396.832Z" stroke="black" stroke-width="0.4"/>
<path d="M105.432 396.832H86.762L122.461 406.215L115.429 401.589L126.902 402.514L102.846 392.522L105.432 396.832Z" stroke="black" stroke-width="0.4"/>
<path d="M90.633 417.133L96.9245 411.952L95.8142 415.838L90.633 417.133Z" stroke="black" stroke-width="0.4"/>
<path d="M126.902 414.014L107.612 411.952L112.356 419.055L126.902 414.014Z" stroke="black" stroke-width="0.4"/>
<path d="M0.21106 417.133L50.0871 411.952L51.0614 414.765L64.3375 419.055L77.4269 423.185L39.1619 428.885L42.5417 437.875L27.2867 426.51L15.9091 430.84L22.5365 419.055L0.21106 417.133Z" stroke="black" stroke-width="0.4"/>
<defs>
<linearGradient id="paint0_linear_373_587" x1="160.83" y1="-44.7112" x2="335.436" y2="290.325" gradientUnits="userSpaceOnUse">
<stop stop-color="#FF7316"/>
<stop offset="1" stop-color="white" stop-opacity="0"/>
</linearGradient>
<linearGradient id="paint1_linear_373_587" x1="199.468" y1="298.016" x2="409.174" y2="298.016" gradientUnits="userSpaceOnUse">
<stop stop-color="#D9D9D9" stop-opacity="0"/>
<stop offset="1" stop-color="#FF7316"/>
</linearGradient>
<linearGradient id="paint2_linear_373_587" x1="199.468" y1="272.732" x2="409.174" y2="272.732" gradientUnits="userSpaceOnUse">
<stop stop-color="#C0C0C0" stop-opacity="0"/>
<stop offset="1" stop-color="#FF7316"/>
</linearGradient>
<linearGradient id="paint3_linear_373_587" x1="199.468" y1="246.203" x2="409.174" y2="246.203" gradientUnits="userSpaceOnUse">
<stop stop-color="white" stop-opacity="0"/>
<stop offset="1" stop-color="#FF7316"/>
</linearGradient>
<linearGradient id="paint4_linear_373_587" x1="54.9282" y1="364.755" x2="264.634" y2="364.755" gradientUnits="userSpaceOnUse">
<stop stop-color="#D9D9D9" stop-opacity="0"/>
<stop offset="1" stop-color="#FF7316"/>
</linearGradient>
<linearGradient id="paint5_linear_373_587" x1="54.9282" y1="339.471" x2="264.634" y2="339.471" gradientUnits="userSpaceOnUse">
<stop stop-color="#C0C0C0" stop-opacity="0"/>
<stop offset="1" stop-color="#FF7316"/>
</linearGradient>
<linearGradient id="paint6_linear_373_587" x1="54.9282" y1="312.942" x2="264.634" y2="312.942" gradientUnits="userSpaceOnUse">
<stop stop-color="white" stop-opacity="0"/>
<stop offset="1" stop-color="#FF7316"/>
</linearGradient>
<linearGradient id="paint7_linear_373_587" x1="10.1863" y1="419.86" x2="153.164" y2="401.335" gradientUnits="userSpaceOnUse">
<stop stop-color="#D9D9D9" stop-opacity="0"/>
<stop offset="1" stop-color="#FF7316"/>
</linearGradient>
<linearGradient id="paint8_linear_373_587" x1="10.1863" y1="419.86" x2="153.164" y2="401.335" gradientUnits="userSpaceOnUse">
<stop stop-color="#D9D9D9" stop-opacity="0"/>
<stop offset="1" stop-color="#FF7316"/>
</linearGradient>
<linearGradient id="paint9_linear_373_587" x1="10.1863" y1="419.86" x2="153.164" y2="401.335" gradientUnits="userSpaceOnUse">
<stop stop-color="#D9D9D9" stop-opacity="0"/>
<stop offset="1" stop-color="#FF7316"/>
</linearGradient>
<linearGradient id="paint10_linear_373_587" x1="10.1863" y1="419.86" x2="153.164" y2="401.335" gradientUnits="userSpaceOnUse">
<stop stop-color="#D9D9D9" stop-opacity="0"/>
<stop offset="1" stop-color="#FF7316"/>
</linearGradient>
<linearGradient id="paint11_linear_373_587" x1="10.1863" y1="419.86" x2="153.164" y2="401.335" gradientUnits="userSpaceOnUse">
<stop stop-color="#D9D9D9" stop-opacity="0"/>
<stop offset="1" stop-color="#FF7316"/>
</linearGradient>
</defs>
</svg>
