<svg width="86" height="118" viewBox="0 0 86 118" fill="none" xmlns="http://www.w3.org/2000/svg">
<path d="M7.09486 117.338V105.489M7.09486 105.489L31.332 35.4705M7.09486 105.489C1.56165 103.513 0.741293 98.0623 1.05908 94.957C1.11253 94.4348 1.25887 93.9298 1.43531 93.4354L24.3301 29.2766M31.332 35.4705L24.3301 29.2766M31.332 35.4705H39.6802M24.3301 29.2766V29.2766C27.0072 29.2766 29.1775 27.1064 29.1775 24.4293V20.9283C29.1775 18.6973 30.986 16.8888 33.217 16.8888H35.3714C36.4125 16.8888 37.2565 17.7328 37.2565 18.7739V18.7739C37.2565 19.815 36.4125 20.659 35.3714 20.659H34.6981C33.2852 20.659 32.1398 21.8044 32.1398 23.2173V23.2173C32.1398 24.6303 33.2852 25.7757 34.6981 25.7757H35.91C37.9922 25.7757 39.6802 24.0877 39.6802 22.0055V5.44347C39.6802 2.98941 37.6908 1 35.2367 1V1C32.7827 1 30.7933 2.98941 30.7933 5.44347V6.25137C30.7933 9.15162 33.1444 11.5027 36.0446 11.5027H39.6802M24.3301 29.2766V22.6237C24.3301 20.3087 25.1334 18.0653 26.6028 16.2764L27.5236 15.1554C29.4231 12.843 32.2584 11.5027 35.2509 11.5027H39.6802M39.6802 35.4705L47.2206 29.2766M39.6802 35.4705L50.183 63.7472M47.2206 29.2766V23.1853C47.2206 20.5331 46.1671 17.9896 44.2917 16.1142L39.6802 11.5027M47.2206 29.2766L58.9352 62.4006L59.4114 63.7472M64.4559 105.489C68.8327 104.759 70.3022 100.248 70.5958 97.083C70.6913 96.0532 70.4743 95.0283 70.1295 94.0533L59.4114 63.7472M64.4559 105.489L50.183 63.7472M64.4559 105.489V117.338M50.183 63.7472H32.1398M1.17024 63.7472H32.1398M32.1398 63.7472V57.2704C32.1398 56.4169 32.4788 55.5984 33.0823 54.9949V54.9949C33.6858 54.3914 34.5044 54.0523 35.3579 54.0523H36.2291C37.065 54.0523 37.8726 54.3557 38.5017 54.9062V54.9062C39.2506 55.5615 39.6802 56.5083 39.6802 57.5034V70.9529C39.6802 71.6845 39.3896 72.3861 38.8723 72.9034V72.9034C38.355 73.4207 37.6534 73.7113 36.9219 73.7113H35.3579C34.5044 73.7113 33.6858 73.3722 33.0823 72.7687V72.7687C32.4788 72.1652 32.1398 71.3467 32.1398 70.4932V63.7472ZM59.4114 63.7472H86" stroke="#2D5459" stroke-width="2"/>
</svg>
