<svg width="110" height="118" viewBox="0 0 110 118" fill="none" xmlns="http://www.w3.org/2000/svg">
<path d="M2.27686 59.422C10.2608 48.4348 32.1049 26.4603 55.6097 26.4603C70.744 26.4603 85.278 35.5706 95.8701 44.9922C104.512 52.6793 104.078 65.7919 95.3151 73.3406C84.008 83.0806 69.0701 92.7038 55.6097 92.7038C45.7537 92.7038 35.6007 88.0901 26.7978 82.1999C17.2219 75.7924 22.6908 62.9422 34.2127 62.9422V62.9422H57.3546C60.4476 62.9422 62.9549 60.4349 62.9549 57.3419V57.3419C62.9549 54.249 60.4476 51.7416 57.3546 51.7416H55.7693C51.8009 51.7416 48.5838 54.9587 48.5838 58.9272V60.7021C48.5838 65.6508 52.5955 69.6626 57.5443 69.6626H58.8032C64.4473 69.6626 69.0227 65.0872 69.0227 59.4431V58.302C69.0227 52.0277 63.9364 46.9414 57.6621 46.9414H54.4919C46.4668 46.9414 39.9611 53.4471 39.9611 61.4722V62.4622C39.9611 71.0341 46.91 77.983 55.4819 77.983H58.3242C68.4659 77.983 76.6873 69.7616 76.6873 59.6199V58.462C76.6873 47.6808 67.9474 38.941 57.1663 38.941H39.9611" stroke="#2D5459" stroke-width="2"/>
<path d="M54.6523 0.218506V11.7391" stroke="#2D5459" stroke-width="2"/>
<path d="M84.9912 6.61853L78.604 18.4591" stroke="#2D5459" stroke-width="2"/>
<path d="M108.305 23.5798L98.7246 32.8603" stroke="#2D5459" stroke-width="2"/>
<path d="M24.9512 7.25928L30.3803 17.8198" stroke="#2D5459" stroke-width="2"/>
<path d="M1 23.5798L10.2614 32.5403" stroke="#2D5459" stroke-width="2"/>
<path d="M54.6523 117.344V105.824" stroke="#2D5459" stroke-width="2"/>
<path d="M84.9912 110.944L78.604 99.1036" stroke="#2D5459" stroke-width="2"/>
<path d="M108.305 93.983L98.7246 84.7025" stroke="#2D5459" stroke-width="2"/>
<path d="M24.9512 110.304L30.3803 99.7439" stroke="#2D5459" stroke-width="2"/>
<path d="M1 93.983L10.2614 85.0226" stroke="#2D5459" stroke-width="2"/>
<path d="M54.6523 117.024V105.504" stroke="#2D5459" stroke-width="2"/>
</svg>
