<svg width="133" height="107" viewBox="0 0 133 107" fill="none" xmlns="http://www.w3.org/2000/svg">
<path d="M45.5596 106H95.8007" stroke="#2D5459" stroke-width="2"/>
<path d="M87.6883 106.625L85.5908 96.4666C84.6317 91.8212 80.5408 88.4887 75.7974 88.4887H59.2911M59.2911 88.4887H21.2344C15.7115 88.4887 11.2344 84.0115 11.2344 78.4887V65.9743M59.2911 88.4887H122C127.523 88.4887 132 84.0115 132 78.4887V65.9743M59.2911 88.4887L54.6103 106.625M132 65.9743V11.2454C132 5.72251 127.523 1.24536 122 1.24536H21.2344C15.7115 1.24536 11.2344 5.72252 11.2344 11.2454V65.9743M132 65.9743H11.2344M106.724 37.2059H111.866C113.679 37.2059 115.149 35.7359 115.149 33.9225V33.9225C115.149 32.1092 113.679 30.6392 111.866 30.6392H109.382C107.914 30.6392 106.724 29.4492 106.724 27.9812V27.9812C106.724 26.5133 107.914 25.3233 109.382 25.3233H112.022C113.749 25.3233 115.149 23.9233 115.149 22.1963V22.1963C115.149 20.4693 113.749 19.0693 112.022 19.0693H106.724M100.483 46.906V16.7166C100.483 14.7347 98.8759 13.128 96.894 13.128H95.8069C94.4253 13.128 93.3053 14.248 93.3053 15.6296V16.1028C93.3053 17.223 92.3972 18.1312 91.2769 18.1312V18.1312C90.1567 18.1312 89.2486 17.223 89.2486 16.1028V15.4684C89.2486 14.1758 88.2007 13.128 86.9081 13.128V13.128C85.6156 13.128 84.5677 14.1758 84.5677 15.4684V16.1028C84.5677 17.223 83.6596 18.1312 82.5393 18.1312V18.1312C81.4191 18.1312 80.511 17.223 80.511 16.1028V15.3124C80.511 14.106 79.533 13.128 78.3266 13.128V13.128C77.1202 13.128 76.1422 14.106 76.1422 15.3124V16.2588C76.1422 17.2929 75.3039 18.1312 74.2698 18.1312V18.1312C73.2358 18.1312 72.3975 17.2929 72.3975 16.2588V15.1563C72.3975 14.0361 71.4894 13.128 70.3691 13.128V13.128C69.2489 13.128 68.3408 14.0361 68.3408 15.1563V15.3169C68.3408 16.5258 67.3608 17.5058 66.1519 17.5058H65.8488C64.6399 17.5058 63.6599 16.5258 63.6599 15.3169V15.3169C63.6599 14.108 62.6799 13.128 61.471 13.128H61.168C59.9591 13.128 58.9791 14.108 58.9791 15.3169V15.6334C58.9791 16.6675 58.1408 17.5058 57.1067 17.5058V17.5058C56.0727 17.5058 55.2344 16.6675 55.2344 15.6334V15.3169C55.2344 14.108 54.2544 13.128 53.0455 13.128H52.4304C51.2215 13.128 50.2415 14.108 50.2415 15.3169V15.9455C50.2415 16.8072 49.5429 17.5058 48.6812 17.5058V17.5058C47.8195 17.5058 47.1209 16.8072 47.1209 15.9455V15.3169C47.1209 14.108 46.1409 13.128 44.932 13.128H44.0048C42.7959 13.128 41.8159 14.108 41.8159 15.3169V15.9455C41.8159 16.8072 41.1174 17.5058 40.2557 17.5058H40.1025C39.3254 17.5058 38.6954 16.8758 38.6954 16.0986V16.0986C38.6954 15.3215 38.0654 14.6915 37.2882 14.6915H35.1067C33.1248 14.6915 31.5181 16.2982 31.5181 18.2801V40.9692C31.5181 43.8991 29.1429 46.2742 26.2131 46.2742V46.2742C23.2832 46.2742 20.9081 43.8991 20.9081 40.9692V20.3137C20.9081 14.7908 25.3853 10.3137 30.9081 10.3137H111.702C117.225 10.3137 121.702 14.7908 121.702 20.3137V46.906C121.702 52.4288 117.225 56.906 111.702 56.906H110.483C104.96 56.906 100.483 52.4288 100.483 46.906Z" stroke="#2D5459" stroke-width="2"/>
<path d="M48.6809 21.8837V28.93C48.6809 31.7737 50.9861 34.079 53.8298 34.079H53.9755C56.7387 34.079 58.9787 31.839 58.9787 29.0758V28.2853C58.9787 25.9587 57.0926 24.0726 54.766 24.0726V24.0726C52.4393 24.0726 50.5532 25.9587 50.5532 28.2853V39.0303C50.5532 40.8803 49.894 42.6698 48.6938 44.0778V44.0778C44.388 49.1292 47.9777 56.9061 54.6153 56.9061H71.8732C80.0112 56.9061 84.711 47.672 79.9218 41.0925L78.0778 38.5593C75.0853 34.4483 68.9808 34.3705 65.8845 38.404L58.3825 48.1768C57.6056 49.1887 58.3271 50.6521 59.6028 50.6521V50.6521H59.9007C65.4236 50.6521 69.9007 55.1292 69.9007 60.6521V76.4547C69.9007 77.7473 70.9486 78.7951 72.2411 78.7951V78.7951C73.5337 78.7951 74.5816 77.7448 74.5816 76.4523V76.4523C74.5816 75.157 73.5316 74.1046 72.2363 74.1046H0" stroke="#2D5459" stroke-width="2"/>
</svg>
