<svg width="861" height="713" viewBox="0 0 861 713" fill="none" xmlns="http://www.w3.org/2000/svg">
<path opacity="0.4" d="M0 712H312.218L363.854 625.422C371.059 606.584 390.032 566.501 408.285 556.882C413.888 539.646 425.817 499.644 428.699 477.519C432.301 449.862 432.301 407.775 449.113 392.143C462.562 379.638 476.332 377.313 481.536 377.714C473.93 389.738 459.2 417.635 461.121 433.027C463.523 452.266 471.929 467.898 471.929 472.708C471.929 476.557 470.328 483.931 469.527 487.138C473.13 479.522 482.736 463.088 492.343 458.279C484.738 470.704 469.527 501.086 469.527 523.212C471.529 514.394 477.693 495.796 486.339 491.948C484.738 499.964 480.575 517.921 476.732 525.617C471.929 535.237 469.527 541.249 479.134 552.071L481.536 556.882C479.134 559.687 475.291 566.982 479.134 573.716C482.977 580.449 481.536 577.323 480.335 574.918C474.731 573.716 462.082 573.235 456.318 580.93C449.113 590.55 452.715 601.372 461.121 603.777L453.916 630.232L451.515 683.14L446.711 712H347.042C353.847 699.173 371.539 669.432 387.87 653.079C408.285 632.637 432.301 604.98 441.908 578.525C451.515 552.071 462.322 524.414 465.925 509.985C469.527 495.555 462.322 452.266 465.925 430.622C469.527 408.977 479.134 382.523 505.552 360.878C497.947 369.296 484.658 389.257 492.343 401.763C501.95 417.395 524.766 418.597 541.577 405.37C555.027 394.789 571.999 385.73 578.803 382.523C590.411 374.907 615.069 353.904 620.833 330.817C616.43 329.614 604.261 329.374 590.812 338.032C574 348.854 552.385 340.436 552.385 328.411C552.385 316.387 567.996 301.957 595.615 309.172L617.23 316.386C607.623 309.172 581.205 297.147 552.385 306.767C548.382 307.969 537.495 312.779 525.967 322.399C511.556 334.424 486.339 316.387 492.343 298.35C498.347 280.313 506.753 286.325 507.954 288.73C509.155 291.135 509.155 311.576 522.364 306.767C535.573 301.957 549.983 280.313 598.017 293.54C604.021 295.544 617.951 300.514 625.636 304.362C623.234 294.742 622.033 272.857 636.443 262.276C654.456 249.048 665.264 244.239 676.071 241.834C686.879 239.429 679.674 246.643 665.264 256.263C650.854 265.883 638.845 277.908 640.046 289.932C641.007 299.552 650.053 303.56 654.456 304.362C660.06 304.763 671.268 302.198 671.268 288.73C671.268 271.895 650.854 258.668 630.439 252.656C627.637 251.053 622.754 247.125 625.636 244.239C629.238 240.631 632.841 241.834 640.046 241.834C638.045 234.619 636.443 217.784 646.05 208.165L650.854 89.1201C648.452 87.116 644.129 82.3863 646.05 79.5004C648.452 75.893 652.054 75.893 658.059 74.6905C653.255 74.6905 643.649 74.2095 643.649 72.2855C643.649 69.8806 642.448 65.0707 655.657 66.2732C651.654 66.2733 643.649 65.0711 643.649 60.2613C643.649 54.2489 652.054 55.4514 658.059 55.4514L642.448 53.0469C642.848 49.0387 645.81 41.0222 654.456 41.0222C665.264 41.0222 668.866 35.0099 668.866 32.605C668.866 30.2 671.268 18.1753 659.259 15.7704C647.251 13.3654 652.054 3.74569 656.858 1.34075C661.661 -1.06418 673.669 9.75804 654.456 18.1753C650.053 20.1794 642.928 26.5924 649.653 36.2122C650.854 38.2163 655.897 42.2245 666.464 42.2245C670.067 42.2245 678.953 46.3129 685.678 62.6665C694.084 83.1085 701.289 119.183 715.699 155.257C730.109 191.331 728.908 235.821 720.502 262.276C712.096 288.73 707.293 293.54 694.084 293.54C680.874 293.54 682.075 240.632 685.678 235.822C689.28 231.012 695.284 217.785 690.481 178.104C686.638 146.358 676.071 109.563 671.268 95.1331C670.467 91.526 670.307 83.8305 676.071 81.906C681.835 79.9815 681.675 82.7074 680.874 84.3109C679.273 85.914 673.189 89.1201 661.661 89.1201V208.165C663.774 210.57 668.413 218.987 670.067 233.417C671.72 247.847 668.354 256.264 666.464 258.669C672.469 261.876 684.717 272.858 685.678 291.136C686.638 309.413 704.491 296.346 713.297 287.528C720.502 283.921 740.196 281.035 761.331 298.35C764.933 301.557 774.3 307.008 782.946 303.16C793.753 298.35 797.356 295.944 792.552 289.932C787.749 283.921 785.347 281.516 791.351 275.504C797.356 269.491 816.569 282.718 814.167 293.54C811.766 304.362 806.962 313.98 786.548 316.386L776.941 318.792L736.113 625.422C740.516 634.24 753.885 652.598 772.138 655.484C794.954 659.091 835.782 661.496 848.992 627.827H804.561L780.544 328.411L834.582 623.017L734.912 621.815L776.941 316.386C771.738 317.99 760.13 319.996 755.326 315.185C749.322 309.172 738.515 299.553 721.703 303.16C708.254 306.046 704.091 311.578 703.69 313.983C713.697 307.97 736.593 299.553 748.121 313.983C762.531 332.02 745.72 342.842 734.912 340.437C724.105 338.032 718.1 326.006 691.682 328.411C665.264 330.817 659.259 336.83 628.038 329.615C636.043 334.024 659.98 340.677 691.682 332.02C689.681 337.631 682.556 355.587 670.067 382.523C657.578 409.459 655.257 428.217 655.657 434.229V473.911C654.056 478.32 647.491 485.455 634.042 478.721C617.23 470.304 605.222 436.634 602.82 414.99C600.899 397.674 603.621 376.511 605.222 368.094C601.219 378.114 595.135 407.294 602.82 443.849C612.427 489.543 554.787 472.708 543.979 443.849C545.98 454.671 556.228 477.518 581.205 482.328C606.182 487.138 617.23 481.927 619.632 478.721C618.031 486.737 610.265 503.011 592.013 503.973C573.76 504.935 559.59 494.754 554.787 489.543C558.789 499.163 572.079 517.921 593.213 515.997C614.348 514.073 629.238 497.56 634.042 489.543C640.046 487.94 650.854 487.379 646.05 497.96C641.247 508.542 636.844 514.394 635.243 515.997C636.844 523.613 636.924 540.287 624.435 546.059C608.824 553.274 569.197 559.286 492.343 561.691C486.339 563.294 485.138 566.501 528.368 566.501C571.598 566.501 607.223 561.691 619.632 559.286C624.835 558.485 633.081 559.287 624.435 568.906C615.789 578.526 531.17 578.526 489.941 577.323C485.538 579.327 492.583 583.336 555.987 583.336H589.611C594.414 583.335 602.58 587.424 596.816 603.777C589.611 624.22 567.996 689.153 555.987 702.38C543.979 715.607 547.582 683.141 570.397 644.662C574 637.848 579.524 624.22 572.799 624.22C566.074 624.22 497.947 624.22 464.724 624.22C465.124 632.236 471.208 649.471 492.343 654.281C518.761 660.294 548.782 656.686 559.59 644.662C562.392 642.257 567.756 634.32 566.795 621.815C565.834 609.309 531.17 412.985 513.958 316.386C519.562 309.974 537.735 296.186 565.594 292.338L594.414 288.73V279.111C598.417 276.706 607.143 270.453 610.025 264.681C612.907 258.909 611.226 251.053 610.025 247.847C608.824 246.244 605.702 243.999 602.82 247.847C599.218 241.835 583.607 231.013 549.983 235.822C542.778 236.624 523.805 240.633 505.552 250.252C502.35 249.049 494.985 242.797 491.142 227.405C487.3 212.013 487.94 208.165 488.741 208.165C489.541 204.958 492.103 196.622 495.946 188.926C500.749 179.306 499.548 175.699 507.954 173.294C516.36 170.889 513.958 162.471 528.368 162.471C531.17 159.265 538.455 153.573 545.18 156.459L548.782 158.864C550.784 156.86 555.747 153.814 559.59 157.662C563.433 161.509 563.593 161.67 563.192 161.269C565.194 159.265 569.917 155.978 572.799 158.864C576.402 162.471 582.406 157.662 587.209 161.269C592.013 164.876 593.213 164.876 594.414 169.686C597.616 169.686 604.261 171.37 605.222 178.104V182.913C607.223 183.314 611.466 185.078 612.427 188.926C613.628 193.736 614.828 192.533 612.427 198.545L614.828 215.38V223.797C614.828 228.607 613.628 239.189 608.824 243.037C604.021 246.885 602.82 231.012 602.82 222.595C599.218 215.38 582.886 202.874 546.381 210.57C509.875 218.266 500.749 225 500.749 227.405C499.948 224.198 500.749 216.583 510.356 211.773C519.962 206.963 528.768 200.149 531.971 197.343C535.573 194.537 543.979 189.407 548.782 191.331C553.586 193.255 557.188 190.529 558.389 188.926C560.39 187.322 565.354 185.559 569.197 191.331C573.039 197.103 579.604 195.339 582.406 193.736C584.808 192.533 590.331 192.052 593.213 199.748C596.095 207.444 601.619 214.178 604.021 216.583C606.022 214.979 608.824 209.127 604.021 198.545C599.218 187.964 594.014 183.715 592.013 182.913C590.011 177.302 583.847 166.8 575.201 169.686C566.555 172.572 565.194 175.699 565.594 176.901C563.993 173.694 558.629 168.003 549.983 170.889C541.337 173.775 541.577 180.108 542.778 182.913C538.375 178.504 527.888 171.37 521.163 178.104C514.438 184.837 512.757 188.124 512.757 188.926C511.556 192.934 508.434 201.672 505.552 204.558C501.95 208.165 493.544 215.38 497.146 223.797C500.749 232.215 501.95 245.44 500.749 252.656C499.148 253.457 496.186 256.503 497.146 262.276C498.347 269.491 504.351 279.111 509.155 280.313C512.997 281.275 513.958 279.111 513.958 277.908C513.158 281.516 513.958 290.414 523.565 297.148C526.367 301.011 529.329 310.266 518.761 316.386H511.556L479.134 621.815H537.975L516.36 342.842L540.377 621.815H570.397C572.399 624.62 574.961 632.396 569.197 641.054C561.992 651.876 534.372 687.95 517.561 697.57C504.111 705.266 495.145 709.595 492.343 710.797H599.218C606.423 697.971 621.073 665.585 622.033 638.649C622.994 611.714 620.833 586.542 619.632 577.323C622.033 574.518 628.998 575.159 637.644 600.17C646.29 625.182 650.053 652.277 650.854 662.699C651.254 675.525 653.255 702.861 658.059 709.595L659.259 710.797L861 712" stroke="#2D5459" stroke-width="2"/>
</svg>
