<svg width="129" height="94" viewBox="0 0 129 94" fill="none" xmlns="http://www.w3.org/2000/svg">
<path d="M0 87.6174H41.2851M41.2851 87.6174L46.3404 85.9016M41.2851 87.6174L42.8671 82.4212M46.3404 71.013L53.2907 73.6248C54.5957 74.1152 55.6548 75.1004 56.238 76.3667V76.3667C57.553 79.2217 56.1064 82.587 53.1299 83.5972L46.3404 85.9016M46.3404 71.013L111.217 5.72952M46.3404 71.013L42.8671 82.4212M116.834 11.0684L111.217 5.72952M116.834 11.0684L76.4842 52.2502M116.834 11.0684L123.294 17.5413M111.217 5.72952L113.183 3.75123C114.4 2.71932 117.508 1.27464 120.204 3.75123C122.9 6.22781 125.072 8.53553 125.821 9.37982C126.757 10.3179 128.068 12.757 125.821 15.0084C125.546 15.2839 124.666 16.1662 123.294 17.5413M46.3404 85.9016L42.8671 82.4212M32.2979 13.6013L108.351 89.8116C112.258 93.7266 118.601 93.7266 122.508 89.8117L124.951 87.364C128.846 83.4604 128.846 77.14 124.951 73.2364L56.044 4.18756C52.2382 0.373992 46.0596 0.373998 42.2539 4.18756V4.18756C38.4593 7.99003 38.4593 14.1468 42.2539 17.9492L43.8128 19.5113M43.8128 19.5113L47.183 16.1341M43.8128 19.5113L52.5191 28.2356M52.5191 28.2356L58.9787 21.7627M52.5191 28.2356L60.1021 35.8343M60.1021 35.8343L64.034 31.8942M60.1021 35.8343L68.2468 43.9957M68.2468 43.9957L71.617 40.6186M68.2468 43.9957L76.4842 52.2502M84.817 60.6001L87.9064 57.5044M84.817 60.6001L92.6809 68.4801M84.817 60.6001L76.4842 52.2502M92.6809 68.4801L96.6128 64.5401M92.6809 68.4801L100.545 76.3602M100.545 76.3602L108.128 68.7616M100.545 76.3602L108.689 84.5217M108.689 84.5217L112.06 81.1445M108.689 84.5217L116.834 92.6831L76.4842 52.2502M76.4842 52.2502L58.1664 70.9457C56.962 72.1749 56.6322 74.0158 57.335 75.5867V75.5867C58.5341 78.2672 62.0391 78.9221 64.1134 76.8436C83.2969 57.6205 114.169 26.6852 123.294 17.5413" stroke="#2D5459" stroke-width="2"/>
</svg>
